<svg width="26" height="29" viewBox="0 0 26 29" fill="none" xmlns="http://www.w3.org/2000/svg">
<path d="M12.9965 1.75266C13.2441 1.8627 13.3848 1.95054 13.5434 2.16964C13.6391 2.47393 13.6608 2.76353 13.5164 3.05233C13.5033 3.18399 13.4948 3.31614 13.489 3.44832C13.4854 3.52595 13.4817 3.60357 13.478 3.68354C13.4746 3.76475 13.4712 3.84594 13.4676 3.92961C13.4621 4.05241 13.4621 4.05241 13.4564 4.1777C13.4471 4.38018 13.4382 4.58269 13.4298 4.78522C13.485 4.7834 13.5403 4.78159 13.5972 4.77972C15.747 4.71872 17.6166 5.03441 19.3216 6.43147C19.3815 6.47737 19.4415 6.52328 19.5034 6.57057C20.7984 7.61334 21.71 9.34509 21.9859 10.9695C22.1193 11.3566 22.2772 11.4476 22.6059 11.6697C23.1857 12.097 23.4949 12.7621 23.6538 13.4497C23.7534 14.3778 23.629 15.2212 23.0378 15.9609C22.874 16.1357 22.874 16.1357 22.6779 16.2737C22.3387 16.515 22.1266 16.6985 22.024 17.111C22 17.4594 21.9997 17.8001 22.0083 18.1488C22.0084 18.2774 22.0082 18.406 22.0077 18.5347C22.007 18.8722 22.0107 19.2095 22.0156 19.547C22.0228 20.0857 22.0234 20.6244 22.0237 21.1632C22.0245 21.3496 22.0272 21.5359 22.0302 21.7223C22.0405 22.7058 21.8868 23.5867 21.4336 24.4644C21.4036 24.523 21.3735 24.5817 21.3427 24.6421C20.6823 25.8808 19.5775 26.6881 18.2541 27.1182C17.6701 27.2911 17.1427 27.3502 16.5354 27.3464C16.3983 27.3471 16.3983 27.3471 16.2584 27.3478C15.9591 27.3489 15.6599 27.3482 15.3606 27.3474C15.1508 27.3476 14.941 27.3478 14.7312 27.3481C14.2925 27.3485 13.8539 27.3479 13.4152 27.3467C12.8552 27.3452 12.2952 27.3461 11.7352 27.3476C11.3022 27.3486 10.8692 27.3482 10.4362 27.3476C10.2298 27.3475 10.0234 27.3476 9.81702 27.3482C9.52765 27.3489 9.23833 27.3479 8.94895 27.3464C8.86507 27.3469 8.78118 27.3476 8.69476 27.3481C7.31125 27.3354 6.03509 26.8279 5.04045 25.8608C4.94713 25.7646 4.94713 25.7646 4.85193 25.6666C4.79597 25.6114 4.74002 25.5563 4.68236 25.4993C3.68657 24.4537 3.42578 23.143 3.43797 21.7511C3.43959 21.5496 3.43933 21.3483 3.43858 21.1468C3.4367 20.5748 3.43765 20.0029 3.44093 19.4309C3.44282 19.0792 3.44219 18.7276 3.44002 18.3759C3.43972 18.2425 3.44037 18.1091 3.44204 17.9756C3.44432 17.7896 3.44342 17.6038 3.44182 17.4177C3.44222 17.3121 3.44262 17.2065 3.44303 17.0977C3.40273 16.8053 3.40273 16.8053 3.127 16.63C3.03859 16.5813 2.95019 16.5325 2.8591 16.4822C2.10343 15.7669 1.73012 15.0601 1.6894 14.0237C1.67843 13.1125 2.02642 12.3679 2.6479 11.6951C2.8973 11.4711 3.13461 11.3562 3.46561 11.2836C3.46216 11.1968 3.45869 11.11 3.45512 11.0206C3.50406 9.41834 4.52562 7.94401 5.63173 6.86469C5.73594 6.75931 5.73594 6.75931 5.84225 6.6518C7.24426 5.30265 9.10051 4.74546 11.0145 4.77439C11.1139 4.77517 11.2133 4.77595 11.3157 4.77676C11.5583 4.77878 11.8008 4.78162 12.0434 4.78522C12.0339 4.518 12.0226 4.25089 12.011 3.98376C12.0083 3.90814 12.0056 3.83253 12.0028 3.75462C11.9994 3.68146 11.9961 3.60831 11.9927 3.53294C11.99 3.46578 11.9872 3.39863 11.9844 3.32944C11.954 3.1202 11.8781 2.97987 11.7835 2.7924C11.7835 2.39197 11.8283 2.23267 12.0976 1.93136C12.4391 1.72268 12.6033 1.69546 12.9965 1.75266Z" fill="#1F364E"/>
<path d="M11.1032 6.05042C11.2194 6.05025 11.3355 6.04999 11.4517 6.04967C11.6938 6.04929 11.9359 6.04983 12.1781 6.05106C12.4848 6.05253 12.7914 6.05169 13.0981 6.05013C13.3378 6.04918 13.5773 6.04949 13.8169 6.05016C13.9838 6.05041 14.1507 6.04964 14.3176 6.04883C15.8251 6.06066 17.1804 6.44233 18.3689 7.38461C18.4411 7.44158 18.5134 7.49854 18.5878 7.55722C19.7257 8.51453 20.4436 9.82523 20.7083 11.2836C20.743 11.7158 20.7447 12.1445 20.7408 12.5779C20.7417 12.6877 20.7428 12.7976 20.7438 12.9107C20.7386 14.5957 20.2086 15.8782 19.0603 17.102C18.4553 17.6868 17.4971 18.3094 16.6353 18.3146C16.5297 18.3155 16.5297 18.3155 16.4219 18.3165C16.3449 18.3167 16.268 18.3169 16.1886 18.3172C16.1073 18.3177 16.026 18.3183 15.9422 18.3189C15.6726 18.3206 15.4028 18.3216 15.1332 18.3225C15.0409 18.3228 14.9487 18.3232 14.8536 18.3235C14.3649 18.3253 13.8762 18.3266 13.3874 18.3274C12.8841 18.3284 12.3808 18.3313 11.8775 18.3348C11.4893 18.337 11.1011 18.3378 10.713 18.3381C10.5275 18.3385 10.3421 18.3395 10.1567 18.3411C8.47378 18.3549 7.42815 18.0819 6.17901 16.8992C4.85154 15.5268 4.64844 13.9613 4.66645 12.1359C4.69332 10.7532 5.09935 9.50488 5.97864 8.42435C6.03549 8.35242 6.09235 8.28049 6.15092 8.20638C6.893 7.32185 7.82881 6.70661 8.92456 6.34488C8.98819 6.32353 9.05183 6.30217 9.1174 6.28018C9.78528 6.07535 10.4078 6.04706 11.1032 6.05042Z" fill="#F3F6F8"/>
<path d="M14.0366 0.366514C14.6036 0.740135 14.9424 1.24149 15.19 1.86655C15.2696 2.29328 15.2637 2.70648 15.2496 3.13914C15.3336 3.14663 15.4175 3.15411 15.5041 3.16182C17.8958 3.4011 20.0874 4.51485 21.6613 6.345C22.4335 7.31297 23.0207 8.39401 23.3454 9.58879C23.4987 10.1454 23.7222 10.4649 24.1557 10.8451C24.8749 11.516 25.2586 12.6315 25.321 13.5954C25.353 14.8024 25.1768 15.9227 24.434 16.9156C24.3143 17.029 24.1945 17.1422 24.0744 17.2553C23.6208 17.7632 23.6497 18.2457 23.6663 18.901C23.6665 19.0172 23.6664 19.1335 23.6659 19.2497C23.6654 19.5543 23.6687 19.8589 23.6732 20.1635C23.68 20.6489 23.682 21.1343 23.6819 21.6197C23.6825 21.7869 23.6856 21.954 23.6888 22.1212C23.6984 24.0378 22.8924 25.7048 21.5855 27.0802C20.2553 28.365 18.5416 28.9697 16.7221 28.9746C16.6279 28.9752 16.5336 28.9757 16.4366 28.9763C16.1259 28.978 15.8152 28.979 15.5044 28.9799C15.3978 28.9802 15.291 28.9806 15.1812 28.981C14.6742 28.9825 14.1673 28.9838 13.6603 28.9845C13.1367 28.9853 12.6131 28.987 12.0895 28.9902C11.5254 28.9935 10.9612 28.9951 10.397 28.9955C10.1832 28.9959 9.96933 28.9969 9.75549 28.9986C8.32592 29.0087 6.97406 28.9836 5.68618 28.2824C5.62881 28.2521 5.57142 28.222 5.5123 28.1909C3.78379 27.2638 2.5923 25.8874 1.95766 24.0236C1.73224 23.2489 1.71171 22.4867 1.71847 21.6852C1.7181 21.5131 1.71774 21.341 1.71716 21.169C1.71587 20.7493 1.71607 20.3296 1.71964 19.91C1.72157 19.6728 1.72189 19.4358 1.72045 19.1986C1.71916 18.9765 1.72019 18.7544 1.72386 18.5323C1.71761 17.8672 1.71761 17.8672 1.35122 17.3379C1.27128 17.2743 1.27128 17.2743 1.18971 17.2094C0.420684 16.5909 0.10654 15.335 0.00013292 14.4029C-0.00609942 13.2026 0.205326 12.0848 0.953221 11.1104C1.09459 10.9845 1.23729 10.86 1.38103 10.7368C1.87183 10.2716 2.00917 9.76277 2.20069 9.12628C2.86745 6.94138 4.50776 5.26759 6.48126 4.17947C7.58424 3.59485 8.87284 3.10043 10.1376 3.22579C10.1285 3.11254 10.1285 3.11253 10.1193 2.99699C10.0791 2.11331 10.2373 1.46941 10.8158 0.785861C11.7293 -0.0886635 12.9338 -0.240496 14.0366 0.366514ZM11.8705 2.18605C11.7567 2.58023 11.7567 2.58023 11.8682 2.95985C11.9691 3.16335 11.9838 3.30717 11.993 3.53311C11.9963 3.60626 11.9997 3.67942 12.0031 3.7548C12.0058 3.83041 12.0085 3.90602 12.0113 3.98393C12.0146 4.06089 12.018 4.13784 12.0214 4.21712C12.0296 4.40653 12.0369 4.59593 12.0438 4.78539C11.9858 4.78357 11.9279 4.78176 11.8682 4.77989C9.51609 4.71613 7.51237 5.09595 5.74261 6.76279C5.61824 6.88257 5.49514 7.00366 5.3721 7.1248C5.30866 7.18611 5.24522 7.24743 5.17986 7.31061C4.27804 8.24641 3.49559 9.70584 3.45542 11.0208C3.45889 11.1076 3.46235 11.1943 3.46591 11.2837C3.39265 11.2998 3.31938 11.3159 3.24389 11.3325C2.53836 11.6275 2.15199 12.2571 1.84777 12.9388C1.5756 13.6476 1.61301 14.5689 1.89718 15.268C2.23377 15.8818 2.74221 16.5105 3.37927 16.829C3.37959 16.9036 3.3799 16.9781 3.38023 17.055C3.38353 17.7623 3.38847 18.4696 3.3952 19.1769C3.39861 19.5404 3.40141 19.9039 3.40275 20.2675C3.40408 20.6192 3.40708 20.9709 3.41119 21.3225C3.41246 21.4558 3.41316 21.5891 3.41323 21.7224C3.4151 23.4076 3.91424 24.7245 5.11216 25.9267C5.15907 25.9756 5.20599 26.0245 5.25432 26.0749C6.23037 27.0066 7.63501 27.3541 8.9451 27.348C9.03625 27.3486 9.12749 27.3492 9.22141 27.3498C9.51938 27.3514 9.81727 27.351 10.1152 27.3506C10.3245 27.3509 10.5338 27.3515 10.7431 27.352C11.1805 27.3527 11.6179 27.3525 12.0553 27.3516C12.613 27.3507 13.1708 27.3524 13.7286 27.3549C14.1604 27.3565 14.5923 27.3565 15.0242 27.356C15.2298 27.356 15.4353 27.3565 15.6408 27.3576C17.2089 27.3654 17.2089 27.3654 18.7154 26.9664C18.8056 26.9307 18.8056 26.9307 18.8976 26.8942C20.185 26.3279 21.112 25.3039 21.6488 24.0186C21.9648 23.1965 22.0413 22.418 22.0249 21.5436C22.0217 21.3529 22.0206 21.1623 22.0202 20.9716C22.019 20.4304 22.0159 19.8892 22.0064 19.348C22.0007 19.0147 21.9993 18.6816 22.0005 18.3483C22.0003 18.2225 21.9984 18.0966 21.9948 17.9708C21.9679 16.9921 21.9679 16.9921 22.2848 16.5839C22.5017 16.3891 22.7252 16.22 22.961 16.0492C23.5647 15.4007 23.7083 14.5954 23.6839 13.7304C23.6003 12.9428 23.2607 12.2756 22.7011 11.717C22.598 11.6519 22.4946 11.5873 22.391 11.523C22.0219 11.2666 21.9674 10.989 21.8833 10.5635C21.5966 9.36213 21.0494 8.34683 20.275 7.38473C20.2281 7.32375 20.1814 7.26276 20.1332 7.19993C19.0929 5.91542 17.5223 5.21258 15.9428 4.87204C15.8423 4.849 15.8423 4.849 15.7399 4.8255C15.4925 4.78243 15.2633 4.77558 15.0123 4.77693C14.9199 4.77721 14.8275 4.77749 14.7323 4.77778C14.6367 4.7785 14.5411 4.77923 14.4427 4.77998C14.2969 4.78057 14.2969 4.78057 14.1481 4.78116C13.9087 4.78218 13.6694 4.7836 13.4301 4.78539C13.442 4.50016 13.455 4.21497 13.468 3.92978C13.4713 3.84857 13.4748 3.76738 13.4783 3.68371C13.4819 3.60609 13.4855 3.52846 13.4893 3.44849C13.494 3.34096 13.494 3.34096 13.4989 3.23125C13.5167 3.0525 13.5167 3.0525 13.6034 2.87921C13.6391 2.47756 13.5925 2.24634 13.3434 1.92612C12.816 1.53062 12.2734 1.73519 11.8705 2.18605Z" fill="#B3AEFF"/>
<path d="M4.76525 17.1758C5.01171 17.4197 5.24137 17.6596 5.45299 17.9339C6.27883 18.8775 7.53228 19.4049 8.7509 19.6018C8.99615 19.6112 9.23932 19.6163 9.48459 19.6172C9.5575 19.6177 9.63041 19.6183 9.70553 19.6189C9.94645 19.6206 10.1874 19.6216 10.4283 19.6225C10.5525 19.623 10.5525 19.623 10.6793 19.6235C11.1187 19.6254 11.558 19.6266 11.9973 19.6274C12.4474 19.6284 12.8974 19.6313 13.3474 19.6348C13.6965 19.6371 14.0456 19.6378 14.3947 19.6381C14.5604 19.6385 14.726 19.6395 14.8917 19.6411C16.6838 19.6576 18.3856 19.3979 19.7548 18.1289C19.9928 17.8779 20.2233 17.6236 20.4506 17.3629C20.507 17.3012 20.5632 17.2394 20.6213 17.1758C20.6498 17.1758 20.6784 17.1758 20.7079 17.1758C20.714 17.8597 20.7186 18.5437 20.7213 19.2277C20.7227 19.5453 20.7245 19.863 20.7275 20.1807C20.7303 20.488 20.7319 20.7953 20.7325 21.1026C20.7332 21.2753 20.7353 21.448 20.7373 21.6207C20.7375 22.9263 20.4202 23.906 19.526 24.8587C18.6114 25.7611 17.6979 26.0253 16.4365 26.0289C16.3478 26.0295 16.2591 26.03 16.1678 26.0306C15.875 26.0323 15.5823 26.0333 15.2895 26.0342C15.1389 26.0347 15.1389 26.0347 14.9853 26.0353C14.4536 26.037 13.9221 26.0383 13.3904 26.0391C12.8435 26.04 12.2966 26.0431 11.7497 26.0465C11.3272 26.0488 10.9048 26.0495 10.4823 26.0498C10.2809 26.0502 10.0794 26.0512 9.87789 26.0528C8.2915 26.0647 7.07158 25.9898 5.85338 24.8652C5.14515 24.1382 4.75344 23.2661 4.75541 22.2513C4.75542 22.1386 4.75542 22.0259 4.75543 21.9097C4.75587 21.7871 4.75632 21.6645 4.75679 21.5419C4.75695 21.4161 4.75707 21.2903 4.75716 21.1645C4.75749 20.8341 4.75834 20.5036 4.7593 20.1731C4.76018 19.8357 4.76058 19.4983 4.76102 19.1608C4.76194 18.4991 4.76342 17.8375 4.76525 17.1758Z" fill="#DEE6EF"/>
<path d="M20.6218 17.1758C20.6504 17.1758 20.6789 17.1758 20.7084 17.1758C20.7145 17.8597 20.7191 18.5437 20.7218 19.2277C20.7232 19.5453 20.725 19.863 20.728 20.1807C20.7308 20.488 20.7324 20.7953 20.7331 21.1026C20.7338 21.2753 20.7358 21.448 20.7379 21.6207C20.7381 22.9263 20.4207 23.906 19.5265 24.8587C18.6056 25.7674 17.6891 26.028 16.4192 26.0234C16.2834 26.0234 16.2834 26.0234 16.145 26.0234C15.8468 26.0233 15.5486 26.0226 15.2505 26.022C15.0434 26.0218 14.8362 26.0217 14.6291 26.0216C14.0847 26.0213 13.5403 26.0205 12.9959 26.0195C12.4401 26.0186 11.8843 26.0182 11.3284 26.0178C10.2384 26.0168 9.14834 26.0154 8.05829 26.0135C8.05829 25.9849 8.05829 25.9563 8.05829 25.9269C8.12967 25.9265 8.20105 25.9263 8.27459 25.9259C8.94894 25.9226 9.62325 25.9177 10.2976 25.9109C10.6442 25.9076 10.9908 25.9047 11.3375 25.9034C11.6723 25.9021 12.0071 25.8991 12.342 25.895C12.4694 25.8937 12.5968 25.893 12.7243 25.8929C13.656 25.9011 13.656 25.9011 14.47 25.4937C14.539 25.4423 14.608 25.3909 14.6792 25.338C16.432 23.7895 17.7455 21.6188 18.2556 19.3334C18.4067 18.9984 18.6347 18.876 18.943 18.7029C19.6304 18.2903 20.1277 17.8082 20.6218 17.1758Z" fill="#ACBECD"/>
<path d="M18.1088 7.21143C19.4894 8.21257 20.4177 9.5834 20.7081 11.2837C20.7268 11.6441 20.7279 12.0043 20.7289 12.3651C20.7298 12.5372 20.7325 12.7092 20.7352 12.8812C20.7415 14.455 20.3119 15.7509 19.2352 16.9156C18.8838 17.2606 18.554 17.5677 18.1088 17.7821C18.0886 16.0262 18.0886 16.0262 18.6402 15.3985C19.2081 14.6409 19.2038 13.6441 19.1937 12.7376C19.1918 12.5402 19.1937 12.3431 19.1959 12.1458C19.1981 11.012 19.001 10.029 18.2821 9.11761C18.2535 9.08901 18.2249 9.06042 18.1954 9.03096C18.1818 8.89584 18.1737 8.76016 18.168 8.62448C18.1644 8.54267 18.1607 8.46085 18.157 8.37656C18.1536 8.2905 18.1502 8.20444 18.1467 8.11578C18.1429 8.02939 18.1392 7.94299 18.1353 7.85398C18.1261 7.63981 18.1173 7.42563 18.1088 7.21143Z" fill="#AEBFCE"/>
<path d="M16.9829 10.7641C17.3789 11.0352 17.6508 11.3355 17.8223 11.7876C17.904 12.3596 17.8781 12.8559 17.5894 13.3634C17.2308 13.8141 16.8892 14.0987 16.3043 14.1754C15.5998 14.1911 15.1937 14.0695 14.6845 13.5837C14.297 13.1581 14.1705 12.7219 14.189 12.1511C14.2577 11.5903 14.5819 11.1358 14.9901 10.7641C15.6583 10.3732 16.3107 10.3962 16.9829 10.7641Z" fill="#1E344B"/>
<path d="M10.4631 10.8013C10.8313 11.059 11.0345 11.3762 11.1769 11.8035C11.235 12.4468 11.2299 13.0066 10.8303 13.5364C10.5008 13.8895 10.1328 14.1101 9.65082 14.172C9.10975 14.1798 8.66046 14.1508 8.231 13.7963C7.79069 13.2637 7.5914 12.8088 7.60045 12.1179C7.65815 11.571 7.95747 11.1456 8.35589 10.78C9.00166 10.288 9.8031 10.4411 10.4631 10.8013Z" fill="#20354B"/>
<path d="M16.8096 10.6772C16.7827 10.8288 16.7555 10.9805 16.7284 11.1321C16.7057 11.2587 16.7057 11.2587 16.6827 11.388C16.6446 11.5867 16.6013 11.7813 16.5496 11.9769C16.4639 11.9483 16.3781 11.9197 16.2897 11.8902C16.3183 11.833 16.3469 11.7759 16.3764 11.7169C16.3192 11.7169 16.262 11.7169 16.2031 11.7169C16.2031 11.574 16.2031 11.431 16.2031 11.2837C16.1173 11.3409 16.0315 11.3981 15.9431 11.457C15.9664 11.5338 15.9896 11.6107 16.0135 11.6899C16.0298 11.9769 16.0298 11.9769 15.8565 12.2314C15.5966 12.4101 15.5966 12.4101 15.2662 12.3938C15.1751 12.3706 15.0839 12.3474 14.99 12.3234C14.9615 12.4664 14.9329 12.6094 14.9034 12.7567C14.8176 12.7853 14.7318 12.8139 14.6435 12.8433C14.4159 12.7295 14.4006 12.6348 14.3131 12.3993C14.2171 12.0897 14.2072 11.9885 14.2915 11.6628C14.8817 10.697 15.6949 10.1864 16.8096 10.6772Z" fill="#21354C"/>
<path d="M11.3504 15.1827C11.5423 15.1847 11.5423 15.1847 11.7782 15.2152C12.4872 15.2931 13.1704 15.3043 13.8739 15.1763C14.0363 15.1827 14.0363 15.1827 14.188 15.2947C14.2963 15.4426 14.2963 15.4426 14.2963 15.7026C14.2096 15.9625 14.2096 15.9625 14.0363 16.1141C13.2826 16.4282 12.5004 16.4987 11.7172 16.2255C11.5329 16.144 11.3541 16.0586 11.1771 15.9625C11.1662 15.6701 11.1662 15.6701 11.1771 15.356C11.2343 15.2988 11.2914 15.2416 11.3504 15.1827Z" fill="#21364E"/>
<path d="M15.3737 11.1484C15.6824 11.1972 15.6824 11.1972 15.899 11.3813C16.029 11.6304 16.029 11.6304 16.029 11.9012C15.9292 12.188 15.8657 12.2752 15.5957 12.4102C15.3791 12.4481 15.3791 12.4481 15.1625 12.4102C14.9622 12.2694 14.9622 12.2694 14.8159 12.0636C14.7737 11.774 14.7886 11.6049 14.908 11.338C15.0759 11.1972 15.0759 11.1972 15.3737 11.1484Z" fill="#F2F7F9"/>
<path d="M9.09783 11.1969C9.32425 11.3868 9.35266 11.5129 9.40109 11.8034C9.35777 12.0634 9.35777 12.0634 9.17365 12.2746C8.92454 12.4099 8.92454 12.4099 8.64836 12.3991C8.40467 12.3233 8.40467 12.3233 8.23138 12.15C8.18352 11.5469 8.18352 11.5469 8.32344 11.2836C8.59258 11.1447 8.8015 11.1599 9.09783 11.1969Z" fill="#F5FAFB"/>
<path d="M3.29189 13.0166C3.32049 13.0166 3.34908 13.0166 3.37854 13.0166C3.43572 13.76 3.49291 14.5034 3.55183 15.2694C3.14267 14.8602 3.02702 14.5843 3.00488 14.0184C3.01211 13.6307 3.11659 13.3599 3.29189 13.0166Z" fill="#D9E4ED"/>
<path d="M22.0075 13.103C22.1808 13.1897 22.1808 13.1897 22.2837 13.4442C22.4202 13.971 22.3449 14.4829 22.132 14.9767C22.0909 15.0446 22.0498 15.1125 22.0075 15.1825C21.897 14.9616 21.9186 14.8216 21.9313 14.5753C21.9355 14.4899 21.9397 14.4044 21.944 14.3164C21.9489 14.2269 21.9537 14.1375 21.9587 14.0453C21.9633 13.9552 21.9678 13.865 21.9724 13.7722C21.9837 13.5491 21.9954 13.3261 22.0075 13.103Z" fill="#ADBCCD"/>
</svg>
